<?xml version="1.0" standalone="no"?>
<!DOCTYPE svg PUBLIC "-//W3C//DTD SVG 20010904//EN"
 "http://www.w3.org/TR/2001/REC-SVG-20010904/DTD/svg10.dtd">
<svg version="1.0" xmlns="http://www.w3.org/2000/svg"
 width="512.000000pt" height="512.000000pt" viewBox="0 0 512.000000 512.000000"
 preserveAspectRatio="xMidYMid meet">

<g transform="translate(0.000000,512.000000) scale(0.100000,-0.100000)"
fill="#000000" stroke="none">
<path d="M1555 4280 l-1160 -600 -157 0 -158 0 0 -160 0 -160 80 0 80 0 0 -80
0 -80 80 0 80 0 0 -1360 0 -1360 80 0 80 0 0 400 0 400 200 0 200 0 0 815 0
816 25 24 24 25 1551 0 1551 0 24 -25 25 -24 0 -1216 0 -1215 360 0 360 0 0
1440 0 1440 80 0 80 0 0 159 0 159 -1052 542 c-579 299 -1102 569 -1163 601
l-110 58 -1160 -599z m1252 78 c131 -68 478 -247 771 -398 l533 -275 -775 -3
c-427 -1 -1124 -1 -1550 0 l-774 3 766 397 c422 218 772 397 779 397 6 1 119
-54 250 -121z"/>
<path d="M2585 1991 c-69 -17 -125 -62 -161 -131 -18 -33 -19 -72 -22 -627
l-3 -593 -839 0 -840 0 0 -80 0 -80 44 0 c40 0 43 -2 39 -23 -14 -70 55 -175
132 -202 36 -13 -11 -14 -418 -15 l-459 0 -29 -29 c-37 -37 -37 -65 0 -102
l29 -29 2502 0 2502 0 29 29 c37 37 37 65 0 102 l-29 29 -1499 0 c-1304 1
-1493 3 -1458 15 77 27 146 132 132 202 l-4 23 163 0 164 0 0 655 0 656 25 24
c22 23 31 25 124 25 113 0 144 10 162 51 15 37 -2 82 -37 98 -27 12 -201 13
-249 2z m-742 -1534 c-14 -70 55 -175 132 -202 35 -13 -16 -14 -455 -14 -439
0 -490 1 -455 14 77 27 146 132 132 202 l-4 23 327 0 327 0 -4 -23z"/>
</g>
</svg>
